<mxfile host="app.diagrams.net" modified="2021-05-28T03:01:58.532Z" agent="5.0 (Windows)" etag="M27sDOF4TfjLnEq0dNrV" version="14.6.12" type="github">
  <diagram id="0ZHsSf4RnFRJh-Oq5-D7" name="第 1 页">
    <mxGraphModel dx="1422" dy="763" grid="1" gridSize="10" guides="1" tooltips="1" connect="1" arrows="1" fold="1" page="1" pageScale="1" pageWidth="827" pageHeight="1169" math="0" shadow="0">
      <root>
        <mxCell id="0" />
        <mxCell id="1" parent="0" />
        <mxCell id="8LjewoymZLQuPSXT3vMX-19" value="在个人中心维护收货地址" style="edgeStyle=orthogonalEdgeStyle;rounded=0;orthogonalLoop=1;jettySize=auto;html=1;entryX=0;entryY=0.5;entryDx=0;entryDy=0;" edge="1" parent="1" source="8LjewoymZLQuPSXT3vMX-8" target="8LjewoymZLQuPSXT3vMX-18">
          <mxGeometry relative="1" as="geometry" />
        </mxCell>
        <mxCell id="8LjewoymZLQuPSXT3vMX-29" value="添加商品，删除商品，勾选商品，结算商品" style="edgeStyle=orthogonalEdgeStyle;rounded=0;orthogonalLoop=1;jettySize=auto;html=1;entryX=0.5;entryY=0;entryDx=0;entryDy=0;" edge="1" parent="1" source="8LjewoymZLQuPSXT3vMX-8" target="8LjewoymZLQuPSXT3vMX-10">
          <mxGeometry relative="1" as="geometry" />
        </mxCell>
        <mxCell id="8LjewoymZLQuPSXT3vMX-8" value="用户" style="rounded=1;whiteSpace=wrap;html=1;" vertex="1" parent="1">
          <mxGeometry x="320" y="40" width="120" height="60" as="geometry" />
        </mxCell>
        <mxCell id="8LjewoymZLQuPSXT3vMX-24" value="提供商品信息" style="edgeStyle=orthogonalEdgeStyle;rounded=0;orthogonalLoop=1;jettySize=auto;html=1;entryX=0;entryY=0.5;entryDx=0;entryDy=0;" edge="1" parent="1" source="8LjewoymZLQuPSXT3vMX-9" target="8LjewoymZLQuPSXT3vMX-10">
          <mxGeometry relative="1" as="geometry" />
        </mxCell>
        <mxCell id="8LjewoymZLQuPSXT3vMX-9" value="商品" style="rounded=1;whiteSpace=wrap;html=1;" vertex="1" parent="1">
          <mxGeometry x="40" y="280" width="120" height="60" as="geometry" />
        </mxCell>
        <mxCell id="8LjewoymZLQuPSXT3vMX-17" value="结算已勾选的商品" style="edgeStyle=orthogonalEdgeStyle;rounded=0;orthogonalLoop=1;jettySize=auto;html=1;" edge="1" parent="1" source="8LjewoymZLQuPSXT3vMX-10" target="8LjewoymZLQuPSXT3vMX-16">
          <mxGeometry relative="1" as="geometry" />
        </mxCell>
        <mxCell id="8LjewoymZLQuPSXT3vMX-10" value="购物车" style="rounded=1;whiteSpace=wrap;html=1;" vertex="1" parent="1">
          <mxGeometry x="320" y="200" width="120" height="60" as="geometry" />
        </mxCell>
        <mxCell id="8LjewoymZLQuPSXT3vMX-33" value="提交并拆分订单,锁定库存,返回总订单支付金额" style="edgeStyle=orthogonalEdgeStyle;rounded=0;orthogonalLoop=1;jettySize=auto;html=1;entryX=1;entryY=0.5;entryDx=0;entryDy=0;" edge="1" parent="1" source="8LjewoymZLQuPSXT3vMX-16" target="8LjewoymZLQuPSXT3vMX-32">
          <mxGeometry relative="1" as="geometry" />
        </mxCell>
        <mxCell id="8LjewoymZLQuPSXT3vMX-16" value="提交订单页面" style="rounded=1;whiteSpace=wrap;html=1;" vertex="1" parent="1">
          <mxGeometry x="560" y="370" width="120" height="60" as="geometry" />
        </mxCell>
        <mxCell id="8LjewoymZLQuPSXT3vMX-31" value="提供默认收货地址，和维护接口" style="edgeStyle=orthogonalEdgeStyle;rounded=0;orthogonalLoop=1;jettySize=auto;html=1;entryX=1;entryY=0.75;entryDx=0;entryDy=0;" edge="1" parent="1" source="8LjewoymZLQuPSXT3vMX-18" target="8LjewoymZLQuPSXT3vMX-16">
          <mxGeometry x="0.0149" y="30" relative="1" as="geometry">
            <mxPoint as="offset" />
          </mxGeometry>
        </mxCell>
        <mxCell id="8LjewoymZLQuPSXT3vMX-18" value="收货地址" style="rounded=1;whiteSpace=wrap;html=1;" vertex="1" parent="1">
          <mxGeometry x="640" y="40" width="120" height="60" as="geometry" />
        </mxCell>
        <mxCell id="8LjewoymZLQuPSXT3vMX-26" value="提供库存信息" style="edgeStyle=orthogonalEdgeStyle;rounded=0;orthogonalLoop=1;jettySize=auto;html=1;entryX=0;entryY=0.5;entryDx=0;entryDy=0;" edge="1" parent="1" source="8LjewoymZLQuPSXT3vMX-25" target="8LjewoymZLQuPSXT3vMX-10">
          <mxGeometry relative="1" as="geometry">
            <Array as="points">
              <mxPoint x="240" y="150" />
              <mxPoint x="240" y="230" />
            </Array>
          </mxGeometry>
        </mxCell>
        <mxCell id="8LjewoymZLQuPSXT3vMX-25" value="库存" style="rounded=1;whiteSpace=wrap;html=1;" vertex="1" parent="1">
          <mxGeometry x="40" y="120" width="120" height="60" as="geometry" />
        </mxCell>
        <mxCell id="8LjewoymZLQuPSXT3vMX-28" value="提供sku信息" style="edgeStyle=orthogonalEdgeStyle;rounded=0;orthogonalLoop=1;jettySize=auto;html=1;exitX=1;exitY=0.5;exitDx=0;exitDy=0;" edge="1" parent="1" source="8LjewoymZLQuPSXT3vMX-27">
          <mxGeometry x="-0.2" relative="1" as="geometry">
            <mxPoint x="260" y="230" as="targetPoint" />
            <mxPoint as="offset" />
          </mxGeometry>
        </mxCell>
        <mxCell id="8LjewoymZLQuPSXT3vMX-27" value="sku" style="rounded=1;whiteSpace=wrap;html=1;" vertex="1" parent="1">
          <mxGeometry x="40" y="200" width="120" height="60" as="geometry" />
        </mxCell>
        <mxCell id="8LjewoymZLQuPSXT3vMX-35" value="用户点击确认支付后，请求后端支付接口" style="edgeStyle=orthogonalEdgeStyle;rounded=0;orthogonalLoop=1;jettySize=auto;html=1;entryX=0.5;entryY=0;entryDx=0;entryDy=0;" edge="1" parent="1" source="8LjewoymZLQuPSXT3vMX-32" target="8LjewoymZLQuPSXT3vMX-34">
          <mxGeometry relative="1" as="geometry" />
        </mxCell>
        <mxCell id="8LjewoymZLQuPSXT3vMX-32" value="收银台" style="rounded=1;whiteSpace=wrap;html=1;" vertex="1" parent="1">
          <mxGeometry x="190" y="370" width="120" height="60" as="geometry" />
        </mxCell>
        <mxCell id="8LjewoymZLQuPSXT3vMX-37" value="支付完成后，异步修改订单状态" style="edgeStyle=orthogonalEdgeStyle;rounded=0;orthogonalLoop=1;jettySize=auto;html=1;" edge="1" parent="1" source="8LjewoymZLQuPSXT3vMX-34" target="8LjewoymZLQuPSXT3vMX-36">
          <mxGeometry relative="1" as="geometry" />
        </mxCell>
        <mxCell id="8LjewoymZLQuPSXT3vMX-34" value="支付宝APP或者微信app" style="rounded=1;whiteSpace=wrap;html=1;" vertex="1" parent="1">
          <mxGeometry x="190" y="520" width="120" height="60" as="geometry" />
        </mxCell>
        <mxCell id="8LjewoymZLQuPSXT3vMX-36" value="订单" style="rounded=1;whiteSpace=wrap;html=1;" vertex="1" parent="1">
          <mxGeometry x="530" y="520" width="120" height="60" as="geometry" />
        </mxCell>
        <mxCell id="8LjewoymZLQuPSXT3vMX-40" value="定时扫描支付流水表，请求支付平台查单接口" style="edgeStyle=orthogonalEdgeStyle;rounded=0;orthogonalLoop=1;jettySize=auto;html=1;entryX=0.583;entryY=1.033;entryDx=0;entryDy=0;entryPerimeter=0;" edge="1" parent="1" source="8LjewoymZLQuPSXT3vMX-38" target="8LjewoymZLQuPSXT3vMX-36">
          <mxGeometry x="0.5511" y="-30" relative="1" as="geometry">
            <mxPoint as="offset" />
          </mxGeometry>
        </mxCell>
        <mxCell id="8LjewoymZLQuPSXT3vMX-38" value="后台定时器" style="rounded=1;whiteSpace=wrap;html=1;" vertex="1" parent="1">
          <mxGeometry x="354" y="640" width="120" height="60" as="geometry" />
        </mxCell>
      </root>
    </mxGraphModel>
  </diagram>
</mxfile>
